<svg xmlns="http://www.w3.org/2000/svg" viewBox="0 0 1337.7 267.3"><path d="M411.7 158.4v78l-1 .4c-9.7 4-19 7-27.7 8.9s-18.2 2.9-28.4 2.9c-24.1 0-43.3-7.4-56.9-22s-20.5-34.7-20.5-59.9c0-16 3.2-30.3 9.5-42.5 6.4-12.3 15.9-21.9 28.2-28.8 12.3-6.8 27-10.3 43.8-10.3 19.1 0 35.8 4.2 49.6 12.5l1.3.8-10.7 24.5-1.6-.9c-12.6-6.8-25.4-10.2-38-10.2-15.2 0-27.2 5-35.8 14.7-8.7 9.8-13.1 23.5-13.1 40.6 0 17 3.9 30.5 11.6 40.3 7.6 9.7 19 14.6 33.9 14.6 9.2 0 17.7-1.4 25.3-4.2v-33.3h-32.7l.2-26 63-.1zm113.4-17.9c-10.2-11.4-24.4-17.2-42.2-17.2-18.5 0-33 5.7-43.2 16.9-10.2 11.1-15.3 26.5-15.3 45.7 0 18.6 5.2 33.9 15.3 45.3 10.2 11.5 24.4 17.4 42.1 17.4 18.4 0 33-5.7 43.2-17.1 10.2-11.3 15.4-26.6 15.4-45.6 0-18.8-5.1-34.1-15.3-45.4zm-22.8 74c-4.5 6.4-11 9.6-19.9 9.6-9 0-15.6-3.1-20.1-9.6-4.6-6.5-6.9-16.1-6.9-28.5 0-12.6 2.3-22.2 6.9-28.7 4.5-6.4 11-9.5 19.9-9.5 9.1 0 15.6 3.1 20.1 9.5 4.5 6.5 6.8 16.1 6.8 28.7.1 12.3-2.2 21.9-6.8 28.5zm493.9-75.6c-9.2-10.4-22.2-15.7-38.7-15.7-17.4.1-31.4 5.8-41.5 17.1s-15.2 26.5-15.2 45.5c0 19.4 5.4 34.9 16.2 46 10.7 11.1 25.9 16.7 45.1 16.7 16.4 0 30.8-3.7 42.7-11.1l1-.6-4.6-23.2-2 1.2c-11.5 6.5-23.5 9.8-36 9.8-9.5 0-17-2.8-22.3-8.5-5.1-5.3-7.9-12.9-8.4-22.5h77.6v-1.7c0-1.3 0-3.2.1-5.9 0-2.7.1-4.7.1-5.9-.3-17-5-30.8-14.1-41.2zm-63.4 33.8c.9-8.4 3.5-14.9 7.8-19.2 4.6-4.7 10.2-6.9 16.9-6.9 7.2 0 12.7 2.3 16.7 7.1 3.8 4.5 5.8 10.9 6.1 19.1h-47.5v-.1zM601 223.9c-6.5 0-10.9-1.6-13.1-4.8-2.3-3.4-3.4-10.3-3.4-20.4V83.4l-31.2 8.8v107c0 8.5.6 15.8 1.8 21.5 1.2 5.9 3.5 11 6.7 15.3 3.2 4.4 7.7 7.6 13.3 9.6 5.4 1.9 12.3 2.9 20.5 2.9 2 0 4.3-.1 6.7-.4s4.3-.5 5.9-.8c.9-.2 1.9-.3 2.9-.5v-23.6c-4 .5-7.3.7-10.1.7zm202.6-83.4c-8.8-11.4-21-17.2-36.4-17.2-13.6 0-25.1 5-34.1 14.9a440.55 440.55 0 0 0 .4-19v-48L702.3 80v166.2h27.2l2.3-12.5c3 3.4 7.1 6.6 12.3 9.4 6.7 3.6 14.3 5.5 22.4 5.5 15.2 0 27.5-6 36.6-17.7 8.9-11.6 13.5-27.1 13.5-45.9 0-18.2-4.4-33.2-13-44.5zm-25.2 73.7c-4.7 6.6-10.7 9.8-18.5 9.8-8.9 0-15.3-3.1-19.8-9.4-4.5-6.4-6.8-16.7-6.8-30.6.2-24.6 9-36.5 26.9-36.5 7.8 0 13.8 3 18.4 9.3s7 15.9 7 28.5c-.1 12.5-2.5 22.2-7.2 28.9zM663.5 108.9c2.2-2.5 6-3.7 11.4-3.7 3.2 0 7.8.4 13.5 1.2l1.6.2V82c-7-1.2-13.9-1.8-20.6-1.8-7.5 0-13.8.9-19 2.7-5.3 1.8-9.5 4.7-12.7 8.5-3.1 3.8-5.4 8.3-6.8 13.6-1.3 5.1-2 11.4-2 18.6v5l-16.5 2.1-2.2 19.6h18.7v98.3h31.2v-98.3h27.4v-21.9h-27.4v-6.3c0-6.2 1.2-10.7 3.4-13.2zm443 25.1c-7.4-7.1-19.4-10.7-35.5-10.7-14.5 0-28.3 2.4-41.1 7.3 4.7 6.3 7.9 13.6 9.6 22.1 11.3-3.9 21.1-5.9 29-5.9 6.2 0 10.8 1.5 13.7 4.3 2.9 2.9 4.4 7.7 4.4 14.3v4.7c-1.6.2-3.7.4-6 .6l-8.6.9-7.1.8c-16.3 1.6-28.6 5.4-36.8 11.4-8.4 6.2-12.6 15.7-12.6 28.3 0 11.7 3.6 20.9 10.6 27.1s16.2 9.4 27.4 9.4c8.2 0 15.2-1.4 21-4.2 5.1-2.4 10.3-6.1 15.5-10.9.3 1.1.8 2.5 1.5 4.5l2.3 7 .3 1.3h23.6v-77.9c.1-15.7-3.7-27.3-11.2-34.4zm-19.9 76.9c-1.9 3.9-5.1 7.4-9.5 10.2-4.5 2.9-9.8 4.4-15.9 4.4-4.9 0-8.7-1.2-11.3-3.5s-3.8-5.7-3.8-10.2c0-6.7 2.3-11.3 7.1-14.3 5-3.1 13-5.2 24-6.1.3 0 1.1-.1 5.7-.4 1.6-.1 2.9-.2 3.8-.3l-.1 20.2zm243.5-22.9c-5-5.6-12.8-10.4-23.2-14.4-.8-.4-2-.8-3.5-1.4-1.8-.7-2.4-.9-2.7-1-8.3-3.2-13.9-5.8-16.8-7.7-2.5-1.7-3.7-4-3.7-7 0-3.2 1.2-5.5 3.8-7.1 2.8-1.7 6.7-2.6 11.8-2.6 9.4 0 19.4 2.6 29.8 7.6l1.6.8 6.7-19.6s-3.5-2.3-8.9-4.9c-18.6-8.7-36-7.1-41.8-6.3-8 1.3-14.7 3.9-19.9 7.9-7.8 6-11.7 14.7-11.7 25.8 0 9.2 2.4 16.6 7.3 22 4.7 5.3 12.4 10.2 23 14.4.9.4 2.8 1.1 5.8 2.2 8.5 3.4 14.4 6.3 17.3 8.5 2.7 2 4 4.7 4 8.2-.1 3.9-1.5 6.8-4.3 8.8-3 2.1-7.4 3.2-12.9 3.2-3.1 0-6.4-.3-10-.9-15.5-3-22.7-12.5-22.7-12.5l-15.4 13.6s11.6 17.5 38 22c6.3 1 13.5 1.4 21.4.4 9.3-1.3 16.8-4.4 22.6-9.2 7.9-6.7 12-16.2 12-28.4.1-9.2-2.5-16.7-7.6-22.4zm-132.9-8.1l49.8-51.6h-37.9l-.5.5-13.7 13.9-17.4 18c-4.5 4.8-8.8 9.6-12.7 14.3l-1.4 1.4.5-19.5V71.5l-31.2 8.8v168.3h31.2v-44.8l9.6-7.5 38 52.3h38l-52.3-68.7zm-289-47.1c-8.5-5.6-19.5-7.3-29.4-4.5-7.1 2-13.6 6.3-18.2 12l-.9 1.2c-.6.7-1.2 1.5-1.8 2.2l-3.1-15.3h-26.5v120.2h31.2v-45.5c0-12 1-20 1.8-24.3.5-2.9 1.4-5.4 2.1-7.1 2.1-4.9 4.7-8.8 8-11.7 5.6-5 15.4-7.6 22.5-2.8l1 .7s3.1-14.5 14.2-24.4l-.9-.7z" fill="#fff"/><linearGradient id="A" gradientUnits="userSpaceOnUse" x1="112.591" y1="22.105" x2="112.591" y2="262.41"><stop offset="0" stop-color="#00a55f"/><stop offset=".458" stop-color="#45b738"/><stop offset=".82" stop-color="#75c31d"/><stop offset="1" stop-color="#87c812"/></linearGradient><path d="M223.8 91.8l-.5-3c-1.1-6-2.8-11.9-5-17.5-7 16.4-12.9 33.2-20.8 49.2-4.8 9.8-10.8 22.1-20.5 28.1-.5.3-.9.5-1.4.8-6.1 3.2-13.6 4.4-20.4 5.7-7.4 1.3-14.9 2.3-22.4 2.8-16.4 1.1-33.1 1.1-49.5-.4-9-.8-18.4-3.2-25-9.5-4.3-4.1-7-9.7-8.3-15.5-1.5-6.8-1.9-13.8-1.5-20.7A92.04 92.04 0 0 1 51.8 91c1.5-5.5 3.6-11.1 7.1-15.8 5.4-6.4 14.6-8.8 22.8-8.6 10.9.3 22.1 4.1 32.2 7.9 9.5 3.7 18.9 7.9 28.1 12.3l1.2.6L159 95l11.2 5.8c3 1.3 6 2.7 9.4 2 5.8-1.2 10.1-6.8 13.1-11.5 7.1-11.1 12.5-23.2 18.7-34.9-6.7-11.9-15.7-22.5-26.2-31.1C149.4-3.8 95.5-8.3 55.6 14.5 35.8 25.8 19.4 43.2 9.9 64-3.4 93.1-2.5 127.3 8 157.7c3.5 9.8 19 47.3 62.4 87.9 4.6 4.1 9.6 8 14.9 11.9 2 1.3 4 2.7 6.1 3.8 8.4 4.5 18.1 7.2 27.4 5.6 7.4-1.3 14.1-5.3 20.4-9.6 34-23 60.8-56.7 75.3-95.2 8.6-22.5 13.1-46.7 9.3-70.3z" fill="url(#A)"/></svg>